<svg width="80" height="18" viewBox="0 0 80 18" fill="none" xmlns="http://www.w3.org/2000/svg">
    <g clip-path="url(#5dt1ipwsga)" fill="#fff" fill-opacity=".65">
        <path d="M9.343 6.341c0 1.438-.867 2.147-2.602 2.147H4.573V4.155H6.72c1.755 0 2.622.729 2.622 2.167v.02zm2.72-4.51C10.84.809 9.185.316 7.076.316H0V16.76h4.573v-4.687H6.84c2.109 0 3.804-.512 5.085-1.497 1.32-1.063 2.01-2.54 2.01-4.43v-.06c-.039-1.792-.63-3.21-1.872-4.253zM27.95 8.566c0 1.221-.394 2.265-1.163 3.073-.788.866-1.813 1.32-3.016 1.32-1.202 0-2.227-.454-3.015-1.32-.789-.847-1.183-1.89-1.183-3.112v-.059c0-1.22.394-2.265 1.163-3.072.788-.867 1.774-1.32 3.016-1.32 1.222 0 2.227.453 3.055 1.32.788.847 1.183 1.89 1.183 3.111v.06h-.04zm2.149-6.085C28.402.827 26.294 0 23.77 0s-4.632.847-6.347 2.501c-1.695 1.635-2.542 3.663-2.542 6.026v.06c0 2.362.847 4.371 2.503 6.006 1.695 1.654 3.804 2.48 6.327 2.48s4.632-.846 6.347-2.5c1.695-1.635 2.543-3.663 2.543-6.026v-.06c0-2.362-.848-4.371-2.503-6.006zM63.803.315H49.356v3.998h4.947v12.446h4.573V4.313h4.947V.315h-.02zM68.929 10.26 70.8 5.573l1.833 4.687H68.93zm4.1-10.063h-4.396l-6.997 16.562h4.79l1.182-2.935h6.327l1.183 2.935h4.888L73.028.197zM38.495 4.254h3.016c1.636 0 2.464.65 2.464 1.95v.059c0 1.3-.828 1.95-2.464 1.95h-3.016v-3.96zm7.273 6.774-.138-.197c1.971-.984 2.957-2.6 2.957-4.844v-.06c0-1.614-.473-2.874-1.459-3.84C45.967.907 44.193.316 41.769.316H33.98V16.76h4.573v-4.963h2.366l.177.256c1.754 2.6 3.587 4.786 7.332 5.416l1.44-3.446c-2.05-.828-3.154-1.733-4.1-2.994z"/>
    </g>
    <defs>
        <clipPath id="5dt1ipwsga">
            <path fill="#fff" d="M0 0h80v17.5H0z"/>
        </clipPath>
    </defs>
</svg>
